<?xml version="1.0" standalone="no"?>
<!DOCTYPE svg PUBLIC "-//W3C//DTD SVG 20010904//EN"
 "http://www.w3.org/TR/2001/REC-SVG-20010904/DTD/svg10.dtd">
<svg version="1.0" xmlns="http://www.w3.org/2000/svg"
 width="1342.000000pt" height="1276.000000pt" viewBox="0 0 1342.000000 1276.000000"
 preserveAspectRatio="xMidYMid meet">

<g transform="translate(0.000000,1276.000000) scale(0.100000,-0.100000)"
fill="#000000" stroke="none">
<path d="M6425 12124 c-44 -7 -98 -18 -120 -24 -22 -6 -50 -14 -63 -17 -12 -3
-25 -9 -28 -14 -3 -5 -13 -9 -22 -9 -28 0 -231 -109 -262 -140 -3 -3 -23 -18
-45 -34 -141 -104 -297 -321 -370 -516 -9 -25 -21 -55 -26 -67 -5 -13 -13 -34
-19 -48 -5 -14 -14 -35 -19 -47 -6 -13 -17 -43 -25 -68 -8 -25 -19 -56 -25
-70 -5 -14 -33 -86 -61 -160 -28 -74 -55 -144 -60 -155 -29 -68 -102 -267 -99
-269 3 -2 299 -127 595 -252 l32 -13 57 147 c31 81 61 158 67 172 14 32 17 41
73 190 25 69 51 135 56 148 5 12 14 34 20 50 17 39 23 55 64 167 72 192 166
285 346 343 46 15 212 15 258 1 182 -58 277 -144 331 -299 12 -36 28 -78 35
-95 7 -16 23 -57 35 -90 12 -33 27 -71 32 -85 6 -14 14 -34 18 -45 4 -11 12
-31 18 -45 5 -14 31 -81 57 -150 48 -130 55 -147 74 -192 26 -63 31 -76 56
-146 16 -43 32 -71 39 -69 56 23 603 270 609 277 5 4 4 16 -1 26 -6 11 -31 75
-57 144 -26 69 -51 136 -57 150 -6 14 -14 34 -18 45 -4 11 -12 31 -18 45 -6
14 -27 70 -47 125 -20 55 -45 117 -56 138 -10 22 -19 46 -19 55 0 10 -9 32
-20 50 -11 18 -20 41 -20 52 0 10 -4 22 -10 25 -5 3 -10 12 -10 20 0 21 -90
206 -111 229 -11 11 -19 26 -19 33 0 7 -4 13 -8 13 -4 0 -16 14 -27 32 -33 56
-188 204 -270 257 -91 60 -232 129 -295 145 -14 4 -48 13 -76 21 -129 35 -343
44 -489 19z"/>
<path d="M3247 10964 c-4 -5 -31 -11 -60 -15 -311 -44 -633 -236 -833 -499
-77 -102 -147 -219 -174 -295 -4 -11 -12 -31 -18 -45 -79 -183 -106 -496 -61
-720 12 -58 23 -117 26 -133 3 -15 9 -30 14 -33 5 -3 9 -14 9 -25 0 -10 4 -27
9 -37 9 -16 30 -63 85 -185 14 -32 26 -60 26 -62 0 -5 32 -76 80 -180 15 -33
35 -76 43 -95 8 -19 27 -62 42 -95 15 -33 34 -76 42 -95 9 -19 26 -57 38 -85
31 -67 64 -141 85 -190 40 -92 64 -144 97 -210 20 -38 89 -200 155 -360 65
-159 127 -302 138 -316 10 -15 30 -53 43 -85 23 -55 72 -164 116 -259 20 -42
36 -79 69 -155 24 -57 56 -128 93 -207 55 -118 49 -220 -20 -366 -49 -103 -88
-190 -109 -242 -9 -22 -24 -55 -34 -73 -10 -18 -18 -39 -18 -47 0 -8 -4 -15
-10 -15 -5 0 -10 -8 -10 -18 0 -10 -4 -22 -8 -27 -5 -6 -15 -26 -22 -45 -8
-19 -29 -69 -48 -110 -19 -41 -40 -91 -47 -110 -25 -67 -265 -610 -304 -687
-41 -80 -111 -231 -111 -239 0 -3 -14 -35 -31 -72 -35 -75 -60 -131 -82 -182
-8 -19 -26 -60 -40 -90 -14 -30 -35 -77 -47 -105 -12 -27 -37 -82 -56 -122
-19 -40 -34 -75 -34 -78 0 -3 -15 -38 -33 -78 -19 -40 -41 -89 -50 -109 -10
-21 -24 -53 -32 -70 -8 -18 -23 -67 -34 -108 -82 -304 -65 -638 45 -888 33
-76 40 -89 86 -168 147 -252 382 -451 668 -566 14 -6 33 -14 42 -19 10 -5 27
-9 37 -9 11 0 22 -4 25 -9 3 -4 22 -11 43 -14 21 -4 74 -13 118 -22 94 -17
309 -20 404 -4 141 23 240 54 396 124 39 17 86 37 105 45 19 7 39 17 45 22 5
4 17 8 27 8 10 0 18 5 18 10 0 6 7 10 15 10 8 0 29 8 47 18 18 10 51 25 73 34
47 19 139 60 328 147 37 17 70 31 72 31 2 0 39 16 82 35 43 20 87 40 98 44 11
5 70 32 130 61 61 29 279 126 485 217 206 90 394 173 418 183 105 49 276 124
317 140 11 4 31 12 45 18 117 47 351 68 482 41 78 -16 131 -30 150 -40 10 -5
25 -9 33 -9 8 0 23 -4 33 -9 9 -5 40 -19 67 -30 28 -12 57 -26 65 -31 8 -6 26
-15 40 -21 36 -15 88 -38 145 -64 28 -13 68 -30 90 -40 52 -22 49 -20 410
-183 171 -78 321 -145 335 -150 14 -5 50 -21 80 -35 30 -14 75 -34 100 -45 25
-11 68 -30 95 -42 28 -13 68 -31 90 -40 41 -18 102 -45 190 -85 28 -13 88 -40
135 -60 47 -20 110 -48 140 -62 74 -34 128 -58 170 -76 19 -8 62 -27 95 -42
104 -47 119 -53 160 -66 22 -6 49 -15 60 -20 48 -19 168 -38 275 -45 146 -9
403 17 462 47 10 5 27 9 37 9 11 0 23 5 26 10 3 6 13 10 22 10 23 0 193 82
247 119 24 17 49 31 54 31 6 0 12 3 14 8 2 4 26 25 53 47 251 197 423 476 485
786 29 144 28 386 -1 524 -20 95 -40 166 -58 210 -29 67 -47 108 -77 172 -19
40 -34 74 -34 77 0 4 -34 81 -80 181 -47 102 -80 177 -80 181 0 3 -14 35 -31
72 -17 37 -39 85 -49 107 -10 22 -42 90 -70 150 -196 418 -429 935 -433 960
-3 17 -22 66 -42 110 -20 44 -40 89 -44 100 -5 11 -18 40 -29 65 -51 109 -92
202 -92 206 0 3 -14 35 -31 72 -89 192 -94 206 -94 282 0 67 16 131 47 188 10
18 18 39 18 47 0 8 5 15 10 15 6 0 10 6 10 14 0 8 16 49 36 92 20 44 45 98 55
122 10 23 29 63 40 90 12 26 25 56 30 67 4 11 37 82 74 158 36 77 122 272 191
435 69 164 141 326 159 362 35 69 75 157 75 165 0 2 16 37 35 76 19 40 35 78
35 86 0 7 5 13 10 13 6 0 10 7 10 15 0 8 4 23 10 33 5 9 30 64 55 122 70 159
89 203 154 343 17 37 31 70 31 73 0 2 16 39 36 82 20 42 40 87 45 100 5 12 13
32 18 45 23 58 48 150 71 265 15 79 13 353 -4 442 -20 100 -42 183 -66 245
-19 52 -107 216 -143 270 -158 233 -415 427 -687 517 -67 23 -98 30 -220 54
-49 10 -335 10 -395 1 -136 -22 -289 -73 -490 -167 -59 -27 -124 -57 -195 -87
-19 -8 -53 -23 -75 -34 -136 -62 -217 -99 -221 -99 -2 0 -29 -12 -61 -26 -32
-14 -76 -34 -98 -44 -22 -10 -75 -34 -117 -54 -43 -20 -80 -36 -82 -36 -3 0
-33 -13 -68 -29 -35 -15 -193 -86 -353 -156 -287 -126 -371 -164 -512 -231
-40 -19 -75 -34 -77 -34 -3 0 -36 -14 -73 -31 -37 -17 -87 -40 -110 -50 -24
-10 -62 -28 -85 -38 -138 -61 -211 -75 -398 -75 -207 1 -294 21 -483 115 -22
10 -45 19 -53 19 -8 0 -14 4 -14 8 0 5 -19 15 -42 22 -24 6 -101 40 -173 75
-71 34 -275 124 -452 199 -177 76 -327 144 -333 152 -7 8 -20 14 -29 14 -9 0
-21 4 -27 8 -5 5 -32 18 -60 30 -47 20 -159 70 -249 111 -68 32 -135 61 -139
61 -2 0 -48 21 -102 46 -55 25 -112 51 -129 59 -154 67 -232 101 -360 160
-100 46 -223 84 -345 107 -69 12 -373 22 -383 12z m6713 -851 c126 -41 250
-140 310 -248 11 -19 20 -44 20 -54 0 -10 3 -21 7 -25 12 -12 32 -99 33 -143
0 -56 -24 -148 -60 -228 -10 -22 -30 -66 -44 -98 -14 -32 -26 -60 -26 -62 0
-3 -17 -42 -39 -87 -21 -46 -45 -99 -54 -118 -66 -154 -84 -193 -117 -265 -61
-133 -90 -197 -90 -200 0 -5 -29 -70 -84 -190 -18 -38 -39 -86 -46 -105 -7
-19 -19 -42 -25 -50 -6 -8 -23 -42 -37 -75 -21 -48 -229 -524 -303 -692 -10
-21 -30 -65 -45 -98 -41 -87 -70 -154 -70 -159 0 -4 -44 -103 -89 -201 -111
-239 -139 -344 -148 -555 -7 -168 12 -283 74 -450 34 -90 48 -122 122 -283 17
-37 31 -70 31 -72 0 -2 16 -39 35 -82 20 -43 40 -87 45 -98 5 -11 34 -74 65
-140 31 -66 108 -239 172 -385 63 -146 128 -294 145 -330 16 -36 37 -81 45
-100 8 -19 33 -71 54 -115 22 -44 39 -85 39 -92 0 -7 8 -29 19 -50 10 -21 30
-64 45 -95 14 -32 37 -82 50 -110 13 -29 36 -81 50 -115 29 -70 59 -137 117
-261 22 -45 39 -84 39 -87 0 -2 12 -30 26 -62 80 -177 77 -170 93 -236 27
-114 0 -231 -83 -357 -53 -81 -157 -163 -241 -190 -22 -7 -50 -16 -63 -21 -33
-13 -159 -11 -201 2 -76 24 -183 68 -336 140 -96 44 -197 89 -201 89 -5 0 -60
24 -237 104 -32 14 -60 26 -63 26 -3 0 -44 19 -92 41 -48 23 -96 45 -107 49
-11 4 -53 24 -94 44 -41 20 -80 36 -87 36 -7 0 -28 8 -46 18 -18 10 -179 79
-357 153 -179 73 -336 144 -349 156 -14 13 -48 34 -76 47 -80 37 -145 66 -150
66 -3 0 -33 13 -68 29 -146 67 -179 81 -188 81 -6 0 -18 4 -28 9 -90 46 -297
91 -508 111 -133 13 -251 7 -424 -22 -112 -19 -270 -60 -337 -89 -13 -5 -33
-13 -45 -18 -37 -15 -89 -37 -153 -66 -33 -15 -78 -34 -100 -43 -22 -9 -51
-24 -65 -34 -29 -20 -775 -356 -805 -361 -28 -6 -98 -35 -315 -135 -36 -16
-99 -44 -140 -62 -41 -18 -102 -45 -135 -60 -67 -31 -159 -72 -270 -120 -53
-23 -109 -49 -215 -98 -174 -81 -259 -105 -350 -99 -110 6 -200 37 -263 91
-14 11 -36 30 -49 41 -34 28 -94 108 -114 153 -50 114 -61 176 -45 260 7 37
17 77 22 90 5 12 13 32 18 45 4 12 18 42 30 65 11 24 21 47 21 52 0 4 20 52
46 106 25 55 49 108 54 119 5 11 25 55 45 98 19 43 35 81 35 83 0 3 14 35 31
72 17 37 39 85 49 107 10 22 34 75 54 118 20 43 36 80 36 83 0 3 14 35 31 72
17 37 43 92 56 122 14 30 33 71 43 91 10 19 78 181 151 359 73 179 140 331
149 340 8 9 20 27 26 40 6 14 21 45 32 70 11 25 31 70 45 100 38 83 71 158
102 230 15 36 42 97 61 135 61 129 93 224 117 345 13 63 15 355 4 415 -15 78
-55 210 -82 272 -29 66 -54 122 -75 166 -68 148 -90 200 -90 213 0 8 -4 14
-10 14 -5 0 -10 6 -10 14 0 8 -9 31 -20 53 -20 38 -56 118 -83 184 -8 19 -83
182 -166 361 -83 178 -151 331 -151 340 0 8 -7 23 -15 34 -8 10 -15 26 -15 35
0 9 -13 43 -29 75 -29 59 -56 119 -93 204 -38 89 -65 149 -111 250 -14 30 -42
93 -62 140 -21 47 -50 112 -65 145 -48 104 -80 175 -80 180 0 2 -16 38 -35 79
-19 42 -35 82 -35 89 0 7 -4 17 -8 22 -5 6 -15 43 -22 82 -13 72 -6 143 20
208 5 11 14 35 22 53 7 17 16 32 20 32 5 0 8 7 8 15 0 25 132 152 191 184 116
63 272 78 374 36 50 -21 98 -42 150 -65 44 -20 88 -39 155 -68 25 -11 70 -31
100 -45 56 -25 81 -36 230 -102 47 -20 117 -52 155 -70 98 -46 164 -75 170
-75 5 0 142 -63 198 -91 22 -10 43 -19 48 -19 5 0 200 -86 432 -191 232 -105
433 -196 447 -201 14 -5 57 -24 95 -42 129 -62 239 -106 340 -137 22 -6 49
-15 60 -20 21 -8 43 -13 130 -30 228 -45 484 -44 715 1 30 6 70 13 88 17 18 3
35 9 38 14 3 5 16 9 30 9 13 0 32 4 42 9 9 6 45 19 78 30 61 20 98 36 259 111
44 20 112 50 150 66 39 15 93 40 120 55 28 15 167 78 310 139 143 62 289 126
325 142 103 47 161 73 260 116 59 25 128 57 215 97 39 18 99 45 135 60 36 15
92 39 125 55 33 15 83 38 110 50 28 12 78 35 113 51 35 16 66 29 68 29 3 0 33
13 67 29 157 73 177 80 262 96 75 14 113 11 185 -12z"/>
<path d="M4750 9374 c0 -8 -8 -33 -19 -57 -10 -23 -24 -58 -31 -77 -15 -43
-30 -80 -41 -102 -5 -10 -9 -25 -9 -34 0 -23 -86 -187 -144 -274 -101 -152
-282 -305 -456 -387 -36 -16 -140 -58 -231 -93 l-166 -63 124 -266 c68 -146
133 -287 144 -313 l21 -46 68 28 c37 16 89 37 116 45 27 9 67 24 89 34 22 10
51 22 65 26 38 11 155 68 158 77 2 4 7 8 12 8 15 0 226 135 256 164 6 6 37 33
68 60 58 50 122 115 188 191 44 52 148 192 148 200 0 3 13 25 28 48 15 23 45
78 66 122 36 75 46 98 67 153 5 12 14 33 19 47 6 14 15 36 20 50 6 14 14 35
19 48 20 48 52 140 49 142 -2 1 -115 53 -253 115 -137 62 -278 125 -312 141
-49 22 -63 25 -63 13z"/>
<path d="M8180 9249 c-162 -71 -301 -129 -307 -129 -17 0 -17 4 13 -76 14 -38
32 -89 40 -114 8 -25 19 -55 25 -67 32 -79 39 -94 84 -218 46 -126 123 -280
182 -362 51 -71 157 -183 218 -228 22 -17 42 -32 45 -35 15 -17 75 -53 160
-95 96 -48 107 -53 170 -75 19 -7 53 -20 75 -30 22 -9 66 -25 98 -35 32 -10
60 -22 63 -26 3 -5 12 -9 20 -9 8 0 34 -9 56 -20 23 -11 48 -20 55 -20 7 0 21
-4 31 -9 51 -26 72 -33 84 -29 11 5 262 561 276 611 3 11 -1 17 -12 17 -9 0
-24 4 -34 9 -34 18 -67 30 -267 106 -82 31 -160 61 -172 66 -13 5 -33 13 -45
18 -181 72 -270 156 -329 309 -5 12 -13 32 -18 45 -4 12 -13 33 -19 47 -6 14
-31 81 -57 150 -25 69 -52 136 -59 150 -7 14 -26 60 -41 103 -15 42 -30 77
-34 76 -3 0 -139 -59 -301 -130z"/>
<path d="M6498 7650 c-570 -72 -958 -510 -958 -1080 0 -367 164 -682 457 -883
377 -256 898 -262 1281 -14 121 78 310 274 286 296 -19 17 -300 237 -312 245
-8 5 -37 -15 -84 -59 -79 -75 -186 -148 -250 -171 -69 -25 -184 -44 -261 -44
-313 1 -554 201 -613 508 -28 144 -9 285 54 417 120 249 356 373 638 335 146
-19 264 -76 383 -187 l67 -61 160 140 c87 77 160 141 162 143 8 7 -170 175
-231 218 -128 92 -290 160 -441 186 -85 15 -260 21 -338 11z"/>
<path d="M3906 5137 c-63 -143 -238 -578 -235 -581 2 -2 60 -24 129 -50 69
-26 136 -52 150 -58 14 -6 35 -15 48 -19 12 -5 32 -13 45 -18 12 -5 73 -28
135 -52 137 -51 281 -146 282 -186 0 -7 4 -13 9 -13 12 0 64 -111 116 -250 44
-119 53 -140 74 -192 6 -13 14 -46 20 -73 11 -58 66 -191 78 -188 11 2 617
274 622 278 2 2 -11 38 -28 79 -17 41 -31 82 -31 90 0 9 -4 24 -9 34 -5 9 -14
29 -20 45 -6 15 -15 37 -20 50 -5 12 -30 78 -56 147 -52 139 -63 166 -78 195
-6 11 -22 43 -37 70 -28 53 -61 107 -70 115 -3 3 -17 21 -30 40 -53 78 -234
238 -321 284 -13 7 -40 22 -59 33 -20 11 -78 37 -130 57 -52 21 -106 42 -120
48 -31 13 -50 20 -120 46 -160 59 -256 96 -265 102 -5 4 -21 10 -33 13 -21 5
-27 -1 -46 -46z"/>
<path d="M9170 5138 c-69 -28 -134 -54 -145 -58 -52 -19 -77 -31 -175 -80
-223 -111 -390 -242 -577 -453 -95 -106 -229 -332 -296 -497 -10 -25 -23 -56
-29 -70 -18 -43 -26 -62 -61 -160 l-35 -95 32 -13 c178 -76 586 -242 594 -242
8 0 24 37 82 185 4 11 12 31 18 45 5 14 18 45 27 70 24 65 78 174 87 178 4 2
8 8 8 14 0 38 175 235 281 317 67 52 241 146 314 170 22 7 81 33 130 57 50 23
102 46 118 49 15 4 27 10 27 14 0 12 -265 621 -270 620 -3 -1 -61 -24 -130
-51z"/>
<path d="M2530 7861 c-28 -16 -72 -34 -240 -96 -138 -51 -151 -57 -195 -75
-37 -16 -54 -22 -130 -50 -102 -38 -189 -72 -207 -81 -10 -5 -27 -9 -38 -9
-11 0 -20 -4 -20 -10 0 -5 -7 -10 -15 -10 -23 0 -174 -73 -242 -116 -96 -61
-201 -155 -268 -239 -22 -27 -43 -51 -47 -53 -5 -2 -8 -9 -8 -16 0 -7 -8 -21
-18 -32 -22 -24 -56 -83 -88 -154 -45 -95 -59 -139 -90 -265 -10 -40 -10 -408
0 -465 4 -25 11 -54 15 -65 5 -11 14 -38 20 -60 35 -116 128 -291 203 -381 47
-57 158 -163 210 -201 49 -36 84 -58 163 -103 17 -9 98 -43 180 -74 83 -32
160 -62 173 -67 35 -14 70 -28 95 -38 12 -4 33 -13 47 -19 14 -5 81 -31 150
-57 69 -25 135 -51 148 -56 12 -5 32 -13 45 -18 119 -49 183 -68 189 -57 4 7
66 147 138 312 120 274 129 300 113 311 -9 7 -23 13 -30 13 -7 0 -21 4 -31 9
-9 5 -29 14 -44 20 -16 6 -38 15 -50 20 -13 5 -79 30 -148 56 -69 26 -136 51
-150 57 -14 6 -35 15 -47 19 -13 5 -33 13 -45 18 -13 5 -39 14 -58 21 -19 7
-44 16 -55 20 -11 5 -47 18 -80 30 -33 12 -76 28 -95 37 -19 8 -44 18 -55 23
-25 9 -91 41 -125 61 -40 23 -123 112 -148 160 -45 84 -55 129 -56 239 0 113
8 149 57 247 42 86 159 191 233 209 16 4 34 10 39 13 6 4 28 13 50 20 41 13
55 18 115 44 36 16 106 42 150 56 14 5 51 20 83 35 32 14 62 26 67 26 6 0 18
4 28 9 43 23 113 51 127 51 9 0 34 9 57 21 42 21 134 56 176 66 13 3 26 12 29
19 3 7 -50 145 -116 307 -67 161 -121 301 -121 310 0 18 -16 21 -40 8z"/>
<path d="M10687 7862 c-6 -9 -267 -623 -267 -627 0 -1 21 -10 48 -19 26 -10
56 -21 67 -26 11 -4 36 -14 55 -20 19 -7 51 -20 70 -28 19 -8 45 -18 58 -23
12 -5 32 -13 45 -18 12 -5 38 -14 57 -21 19 -7 44 -16 55 -21 11 -5 52 -20 90
-34 39 -14 79 -29 90 -34 11 -5 47 -19 80 -31 75 -28 93 -34 130 -50 17 -7 39
-16 50 -20 68 -23 147 -72 196 -120 182 -180 186 -490 8 -684 -56 -62 -136
-104 -339 -180 -69 -26 -133 -51 -142 -57 -10 -5 -24 -9 -31 -9 -7 0 -32 -9
-55 -20 -22 -11 -47 -20 -55 -20 -7 0 -17 -4 -22 -9 -6 -5 -68 -30 -140 -56
-71 -25 -145 -53 -163 -62 -18 -8 -63 -25 -99 -38 -36 -13 -67 -26 -69 -28 -3
-2 60 -144 138 -314 l143 -311 55 20 c30 11 75 29 100 40 25 11 55 24 68 29
34 14 70 28 95 39 12 5 65 23 116 40 52 17 109 37 125 44 17 8 69 28 116 46
47 18 99 38 115 45 17 7 58 23 93 35 153 53 337 173 446 290 30 33 68 77 83
98 15 20 31 39 36 40 4 2 7 10 7 18 0 8 4 14 9 14 5 0 11 8 14 18 3 9 13 28
21 42 22 36 86 178 86 190 0 6 4 18 9 28 9 17 20 56 42 152 7 32 12 123 12
215 0 92 -5 183 -12 215 -19 81 -32 133 -41 155 -4 11 -14 36 -21 55 -49 135
-148 288 -262 403 -138 140 -283 226 -532 317 -33 12 -76 28 -95 35 -19 7 -55
21 -80 30 -25 9 -58 23 -75 30 -16 7 -57 23 -90 35 -33 12 -69 26 -80 30 -11
5 -76 29 -145 55 -133 49 -165 62 -192 76 -9 5 -19 5 -21 1z"/>
<path d="M7406 2561 c-29 -80 -35 -97 -56 -146 -31 -73 -120 -309 -120 -318 0
-4 -9 -29 -21 -55 -26 -58 -32 -73 -57 -142 -71 -192 -103 -267 -129 -300 -49
-63 -73 -86 -122 -119 -91 -62 -161 -83 -271 -85 -237 -3 -404 122 -486 364
-11 30 -22 57 -25 60 -3 3 -12 23 -19 45 -15 48 -24 71 -39 108 -6 15 -15 37
-20 50 -5 12 -30 78 -56 147 -26 69 -51 135 -56 148 -5 12 -13 33 -19 47 -5
14 -14 35 -19 48 -5 12 -26 66 -46 120 -21 53 -40 97 -43 97 -7 0 -605 -262
-614 -269 -6 -5 39 -142 71 -216 5 -11 19 -47 31 -80 31 -85 41 -111 70 -177
5 -13 25 -68 45 -123 35 -97 40 -110 64 -167 6 -16 15 -38 20 -50 5 -13 18
-44 30 -70 12 -26 21 -53 21 -59 0 -18 49 -106 114 -204 132 -199 346 -362
586 -445 96 -34 130 -40 344 -67 73 -9 266 20 396 60 73 22 253 105 258 118 2
5 8 9 14 9 17 0 130 91 199 159 68 69 159 182 159 199 0 6 3 12 8 14 13 6 78
139 121 253 24 61 47 119 51 130 5 11 34 88 65 170 31 83 61 160 66 173 5 12
14 33 19 47 6 14 14 35 19 48 58 145 99 263 93 268 -4 4 -145 69 -313 146
l-306 140 -27 -76z"/>
</g>
</svg>
